<svg width="291" height="58" viewBox="0 0 291 58" fill="none" xmlns="http://www.w3.org/2000/svg">
<g filter="url(#filter0_d_237_116)">
<path d="M22.54 16.84L21.4 15.34L31.96 0.759999H34.18L22.54 16.84ZM25.06 20.08L23.92 18.58L36.88 0.759999H39.1L25.06 20.08ZM27.58 23.32L26.44 21.82L41.8 0.759999H44.02L27.58 23.32ZM11.92 49V0.759999H13.72V49H11.92ZM4 49V0.759999H5.8V49H4ZM7.96 49V0.759999H9.76V49H7.96ZM42.34 49L18.94 18.7L20.08 17.2L44.62 49H42.34ZM37.36 49L16.54 22.06L17.68 20.5L39.64 49H37.36ZM32.32 49L14.14 25.42L15.22 23.92L34.6 49H32.32ZM64.5991 41.98C62.3191 41.98 60.4191 41.52 58.8991 40.6C57.4191 39.68 56.2991 38.46 55.5391 36.94C54.8191 35.38 54.4591 33.66 54.4591 31.78V0.759999H56.2591V31.78C56.2591 34.1 56.9191 36.08 58.2391 37.72C59.5591 39.36 61.6791 40.18 64.5991 40.18C67.5191 40.18 69.6391 39.36 70.9591 37.72C72.2791 36.08 72.9391 34.1 72.9391 31.78V0.759999H74.7391V31.78C74.7391 33.66 74.3591 35.38 73.5991 36.94C72.8791 38.46 71.7591 39.68 70.2391 40.6C68.7591 41.52 66.8791 41.98 64.5991 41.98ZM64.5991 49.9C60.8791 49.9 57.6591 49.1 54.9391 47.5C52.2591 45.86 50.1791 43.66 48.6991 40.9C47.2591 38.14 46.5391 35.1 46.5391 31.78V0.759999H48.3391V31.78C48.3391 34.78 48.9791 37.52 50.2591 40C51.5791 42.48 53.4391 44.46 55.8391 45.94C58.2791 47.38 61.1991 48.1 64.5991 48.1C67.9991 48.1 70.8991 47.38 73.2991 45.94C75.7391 44.46 77.5991 42.48 78.8791 40C80.1991 37.52 80.8591 34.78 80.8591 31.78V0.759999H82.6591V31.78C82.6591 35.1 81.9191 38.14 80.4391 40.9C78.9991 43.66 76.9391 45.86 74.2591 47.5C71.5791 49.1 68.3591 49.9 64.5991 49.9ZM64.5991 45.94C61.5991 45.94 59.0391 45.3 56.9191 44.02C54.8391 42.74 53.2391 41.04 52.1191 38.92C51.0391 36.76 50.4991 34.38 50.4991 31.78V0.759999H52.2991V31.78C52.2991 34.06 52.7591 36.14 53.6791 38.02C54.6391 39.86 56.0391 41.34 57.8791 42.46C59.7191 43.58 61.9591 44.14 64.5991 44.14C67.2791 44.14 69.5191 43.58 71.3191 42.46C73.1591 41.34 74.5391 39.86 75.4591 38.02C76.4191 36.14 76.8991 34.06 76.8991 31.78V0.759999H78.6991V31.78C78.6991 34.38 78.1391 36.76 77.0191 38.92C75.9391 41.04 74.3391 42.74 72.2191 44.02C70.1391 45.3 67.5991 45.94 64.5991 45.94ZM96.588 49V0.759999H98.388V49H96.588ZM88.668 49V0.759999H90.468V49H88.668ZM92.628 49V0.759999H94.428V49H92.628ZM100.548 41.08V39.28H121.068V41.08H100.548ZM100.548 45.04V43.24H121.068V45.04H100.548ZM100.548 49V47.2H121.068V49H100.548ZM114.686 2.56V0.759999H151.946V2.56H114.686ZM114.686 6.52V4.72H151.946V6.52H114.686ZM114.686 10.48V8.68H151.946V10.48H114.686ZM136.406 49V12.4H138.206V49H136.406ZM128.486 49V12.4H130.286V49H128.486ZM132.446 49V12.4H134.246V49H132.446ZM173.583 41.98C171.303 41.98 169.403 41.52 167.883 40.6C166.403 39.68 165.283 38.46 164.523 36.94C163.803 35.38 163.443 33.66 163.443 31.78V0.759999H165.243V31.78C165.243 34.1 165.903 36.08 167.223 37.72C168.543 39.36 170.663 40.18 173.583 40.18C176.503 40.18 178.623 39.36 179.943 37.72C181.263 36.08 181.923 34.1 181.923 31.78V0.759999H183.723V31.78C183.723 33.66 183.343 35.38 182.583 36.94C181.863 38.46 180.743 39.68 179.223 40.6C177.743 41.52 175.863 41.98 173.583 41.98ZM173.583 49.9C169.863 49.9 166.643 49.1 163.923 47.5C161.243 45.86 159.163 43.66 157.683 40.9C156.243 38.14 155.523 35.1 155.523 31.78V0.759999H157.323V31.78C157.323 34.78 157.963 37.52 159.243 40C160.563 42.48 162.423 44.46 164.823 45.94C167.263 47.38 170.183 48.1 173.583 48.1C176.983 48.1 179.883 47.38 182.283 45.94C184.723 44.46 186.583 42.48 187.863 40C189.183 37.52 189.843 34.78 189.843 31.78V0.759999H191.643V31.78C191.643 35.1 190.903 38.14 189.423 40.9C187.983 43.66 185.923 45.86 183.243 47.5C180.563 49.1 177.343 49.9 173.583 49.9ZM173.583 45.94C170.583 45.94 168.023 45.3 165.903 44.02C163.823 42.74 162.223 41.04 161.103 38.92C160.023 36.76 159.483 34.38 159.483 31.78V0.759999H161.283V31.78C161.283 34.06 161.743 36.14 162.663 38.02C163.623 39.86 165.023 41.34 166.863 42.46C168.703 43.58 170.943 44.14 173.583 44.14C176.263 44.14 178.503 43.58 180.303 42.46C182.143 41.34 183.523 39.86 184.443 38.02C185.403 36.14 185.883 34.06 185.883 31.78V0.759999H187.683V31.78C187.683 34.38 187.123 36.76 186.003 38.92C184.923 41.04 183.323 42.74 181.203 44.02C179.123 45.3 176.583 45.94 173.583 45.94ZM205.572 49V0.759999H207.372V49H205.572ZM197.652 49V0.759999H199.452V49H197.652ZM201.612 49V0.759999H203.412V49H201.612ZM209.532 28.84V27.04H223.632C225.912 27.04 227.972 26.54 229.812 25.54C231.692 24.54 233.172 23.12 234.252 21.28C235.372 19.44 235.932 17.28 235.932 14.8C235.932 12.32 235.372 10.16 234.252 8.32C233.172 6.48 231.692 5.06 229.812 4.06C227.972 3.06 225.912 2.56 223.632 2.56H209.532V0.759999H223.632C226.232 0.759999 228.592 1.36 230.712 2.56C232.872 3.72 234.572 5.36 235.812 7.48C237.092 9.56 237.732 12 237.732 14.8C237.732 17.6 237.092 20.06 235.812 22.18C234.572 24.26 232.872 25.9 230.712 27.1C228.592 28.26 226.232 28.84 223.632 28.84H209.532ZM209.532 24.88V23.08H223.632C225.952 23.08 227.912 22.36 229.512 20.92C231.152 19.44 231.972 17.4 231.972 14.8C231.972 12.2 231.152 10.18 229.512 8.74C227.912 7.26 225.952 6.52 223.632 6.52H209.532V4.72H223.632C225.512 4.72 227.212 5.14 228.732 5.98C230.252 6.78 231.472 7.94 232.392 9.46C233.312 10.94 233.772 12.72 233.772 14.8C233.772 16.88 233.312 18.68 232.392 20.2C231.472 21.68 230.252 22.84 228.732 23.68C227.212 24.48 225.512 24.88 223.632 24.88H209.532ZM209.532 20.92V19.12H223.632C224.832 19.12 225.852 18.78 226.692 18.1C227.572 17.38 228.012 16.28 228.012 14.8C228.012 13.28 227.572 12.18 226.692 11.5C225.852 10.82 224.832 10.48 223.632 10.48H209.532V8.68H223.632C225.352 8.68 226.812 9.2 228.012 10.24C229.212 11.28 229.812 12.8 229.812 14.8C229.812 16.8 229.212 18.32 228.012 19.36C226.812 20.4 225.352 20.92 223.632 20.92H209.532ZM235.272 49L226.812 30.46C227.092 30.42 227.372 30.38 227.652 30.34C227.972 30.26 228.272 30.16 228.552 30.04L237.252 49H235.272ZM230.892 49L222.552 30.88C222.872 30.88 223.192 30.88 223.512 30.88C223.872 30.84 224.212 30.8 224.532 30.76L232.872 49H230.892ZM226.512 49L218.232 30.94H220.212L228.492 49H226.512ZM248.959 49L266.419 0.759999H268.339L250.879 49H248.959ZM240.559 49L258.019 0.759999H259.879L242.479 49H240.559ZM244.759 49L262.159 0.759999H264.139L246.679 49H244.759ZM284.119 49L268.459 5.74L269.419 3.04L286.039 49H284.119ZM279.919 49L266.419 11.62L267.319 8.86L281.839 49H279.919ZM275.719 49L264.319 17.44L265.279 14.74L277.639 49H275.719ZM258.739 33.04L259.399 31.24H267.319L267.979 33.04H258.739ZM257.299 37.06L257.959 35.26H268.759L269.419 37.06H257.299ZM255.859 41.02L256.519 39.22H270.199L270.859 41.02H255.859Z" fill="white"/>
</g>
<defs>
<filter id="filter0_d_237_116" x="0" y="0.76001" width="290.039" height="57.14" filterUnits="userSpaceOnUse" color-interpolation-filters="sRGB">
<feFlood flood-opacity="0" result="BackgroundImageFix"/>
<feColorMatrix in="SourceAlpha" type="matrix" values="0 0 0 0 0 0 0 0 0 0 0 0 0 0 0 0 0 0 127 0" result="hardAlpha"/>
<feOffset dy="4"/>
<feGaussianBlur stdDeviation="2"/>
<feComposite in2="hardAlpha" operator="out"/>
<feColorMatrix type="matrix" values="0 0 0 0 0 0 0 0 0 0 0 0 0 0 0 0 0 0 0.25 0"/>
<feBlend mode="normal" in2="BackgroundImageFix" result="effect1_dropShadow_237_116"/>
<feBlend mode="normal" in="SourceGraphic" in2="effect1_dropShadow_237_116" result="shape"/>
</filter>
</defs>
</svg>
